<svg xmlns="http://www.w3.org/2000/svg" viewBox="0 0 64 64" width="64" height="64" fill="none">
  <defs>
    <!-- Vibrant Electric Crimson Gradient -->
    <linearGradient id="neonCrimson" x1="0%" y1="0%" x2="100%" y2="100%">
      <stop offset="0%" stop-color="#ff3b69"/>
      <stop offset="60%" stop-color="#e11d48"/>
      <stop offset="100%" stop-color="#be123c"/>
    </linearGradient>

    <!-- Pure Platinum Chrome Gradient -->
    <linearGradient id="chromePillar" x1="0%" y1="0%" x2="0%" y2="100%">
      <stop offset="0%" stop-color="#ffffff"/>
      <stop offset="100%" stop-color="#cbd5e1"/>
    </linearGradient>

    <!-- Obsidian Core Shadow for universal contrast across both dark & light backgrounds -->
    <filter id="cyberGlow" x="-20%" y="-20%" width="140%" height="140%">
      <feDropShadow dx="0" dy="1.5" stdDeviation="1" flood-color="#000000" flood-opacity="0.55"/>
    </filter>
  </defs>

  <!-- Dark Contour Underlay: Ensures crisp visibility across light and dark themes -->
  <g opacity="0.9" filter="url(#cyberGlow)">
    <polygon points="32,5 57,19.5 57,44.5 32,59 7,44.5 7,19.5" 
             stroke="#0b0a10" stroke-width="7" stroke-linejoin="round"/>
    <line x1="17" y1="21" x2="47" y2="43" stroke="#0b0a10" stroke-width="6.5" stroke-linecap="round"/>
    <line x1="17" y1="43" x2="47" y2="21" stroke="#0b0a10" stroke-width="6.5" stroke-linecap="round"/>
  </g>

  <!-- Outer "0" Ring: Cybernetic Hexagon Loop (Transparent background) -->
  <polygon points="32,5 57,19.5 57,44.5 32,59 7,44.5 7,19.5" 
           stroke="url(#neonCrimson)" stroke-width="4.2" stroke-linejoin="round"/>

  <!-- Inner "x" Cross: Git Branching & Network Data Paths -->
  <line x1="17" y1="21" x2="47" y2="43" stroke="url(#chromePillar)" stroke-width="3.6" stroke-linecap="round"/>
  <line x1="17" y1="43" x2="47" y2="21" stroke="url(#chromePillar)" stroke-width="3.6" stroke-linecap="round"/>

  <!-- Center Hub: Central Network Router / Git Merge Point -->
  <circle cx="32" cy="32" r="6" fill="#09080d" stroke="url(#neonCrimson)" stroke-width="2.6"/>
  <circle cx="32" cy="32" r="2.4" fill="#ffffff"/>

  <!-- 4 Terminal Commit Nodes: Distributed Network Packets -->
  <!-- Top-Left Commit Node -->
  <circle cx="17" cy="21" r="4.5" fill="#09080d" stroke="#ffffff" stroke-width="2.2"/>
  <circle cx="17" cy="21" r="1.6" fill="#ff2a5f"/>

  <!-- Top-Right Commit Node -->
  <circle cx="47" cy="21" r="4.5" fill="#09080d" stroke="#ffffff" stroke-width="2.2"/>
  <circle cx="47" cy="21" r="1.6" fill="#ff2a5f"/>

  <!-- Bottom-Left Commit Node -->
  <circle cx="17" cy="43" r="4.5" fill="#09080d" stroke="#ffffff" stroke-width="2.2"/>
  <circle cx="17" cy="43" r="1.6" fill="#ff2a5f"/>

  <!-- Bottom-Right Commit Node -->
  <circle cx="47" cy="43" r="4.5" fill="#09080d" stroke="#ffffff" stroke-width="2.2"/>
  <circle cx="47" cy="43" r="1.6" fill="#ff2a5f"/>

  <!-- Apex Telemetry Ping Dots -->
  <circle cx="32" cy="5" r="2.2" fill="#ffffff"/>
  <circle cx="32" cy="59" r="2.2" fill="#ffffff"/>
</svg>